<svg id="lp-logo" class="h-full" width="220" height="76" viewBox="-12 -8 252 84" fill="none" xmlns="http://www.w3.org/2000/svg"><title>Lightpanda</title><rect x="-12" y="-8" width="252" height="84" rx="8" ry="8" fill="#111111"></rect><path d="M35.9886 54.695C44.3716 60.3488 54.3207 64.62 62.1817 67.0474C73.0213 60.9019 80.3603 49.2255 80.3603 35.859C80.3603 16.0705 64.3312 0 44.5251 0C24.719 0 8.68994 16.0705 8.68994 35.859C8.68994 42.0352 10.256 47.8427 12.9889 52.9128C19.8059 50.7619 28.5881 49.7171 35.9886 54.695Z" fill="#F6F5EC"></path><path d="M59.8175 53.1278C63.226 55.6474 66.8494 59.8264 68.5383 62.2538C68.9682 62.8684 68.4462 63.6673 67.7092 63.5444C61.6906 62.3768 41.6696 58.1364 24.6885 49.8092C24.32 49.6248 24.1358 49.2254 24.2586 48.8567C24.6271 47.5661 25.9168 44.9235 30.093 44.7392C30.7378 44.7084 31.1063 44.0017 30.7685 43.4793C29.878 42.0966 28.5269 39.9457 28.0049 38.2557C27.9435 38.0406 27.7899 37.8869 27.575 37.7947C26.7766 37.3953 24.4122 36.3506 19.9596 34.9985C14.3095 33.2778 12.1293 33.3393 11.0546 31.5878C9.97982 29.8363 9.94911 27.9927 12.4978 26.5485C15.0465 25.1043 25.9782 22.7075 29.7245 22.8612C29.7245 22.8612 30.9221 22.9226 30.8607 22.2159C30.7992 21.5092 30.2465 20.3415 30.2158 18.4364C30.1851 16.3162 32.5803 14.9642 34.7298 14.2882C36.7871 13.6736 39.3051 14.9027 41.1475 15.8246C41.3318 15.9168 41.5774 15.9475 41.7617 15.8553C42.7136 15.5173 45.815 14.5955 49.4999 15.1486C50.0526 15.2407 51.8029 12.3216 53.9831 12.5367C56.4704 12.7825 57.668 12.9055 58.5892 14.9027C59.3876 16.6542 59.2033 17.4839 58.7734 18.5286C58.6506 18.8051 58.712 19.1431 58.8963 19.3582C59.6332 20.2801 61.5371 22.8304 62.8882 26.3026C64.5464 30.5123 63.7787 33.708 63.0417 36.3506C62.9803 36.5964 63.011 36.8422 63.1645 37.0573C64.4235 38.7166 70.1658 46.5214 71.3633 50.9154C72.7145 55.8625 73.39 57.614 70.6264 58.0749C67.8627 58.5051 66.9108 59.7956 63.748 56.0162C60.9229 52.6054 57.1152 50.9154 57.8522 51.407L59.5718 53.0049C59.6025 52.9741 59.7868 53.0971 59.8175 53.1278Z" fill="black"></path><path d="M44.4024 16.6852C44.4024 16.6852 33.0407 19.5428 31.9353 26.6716C30.4613 36.1664 32.3652 42.0354 41.4238 44.8009C51.8028 47.9965 60.5236 40.7141 61.5062 35.8284C62.4889 30.9428 62.4275 24.9202 57.3301 19.7272C52.2327 14.5343 44.4024 16.6852 44.4024 16.6852Z" fill="white"></path><path d="M32.3346 49.2254C32.2118 49.1333 34.3613 53.896 35.0676 54.3262C35.7738 54.7257 38.5682 55.7089 39.3666 55.3709C39.3666 55.3709 37.8619 52.2675 39.6122 49.2562C39.6122 49.2562 36.9714 49.2254 36.1116 51.6529C36.1423 51.6222 33.8393 50.1165 32.3346 49.2254Z" fill="white"></path><path d="M32.9181 50.6698C32.9181 50.6698 37.7699 54.5415 38.906 54.8181C38.906 54.8181 39.0903 55.617 38.9367 53.1895C38.7832 50.762 39.7658 48.1809 40.902 47.8429C42.0382 47.5049 36.9101 47.9044 36.603 49.9938C36.2959 52.0833 35.4975 49.8709 34.5763 48.7033C33.6858 47.5049 32.8567 45.9071 32.8874 47.2591C32.9181 48.6111 31.6899 49.1949 32.9181 50.6698Z" fill="#F6F5EC"></path><path d="M50.6666 56.6614C51.5571 57.3988 58.6197 60.8403 60.2472 60.7481C61.9054 60.656 65.2832 61.1476 65.1296 60.7481C65.0068 60.3487 56.593 53.1277 53.6145 51.6221C50.9122 50.2701 50.206 49.6862 46.8282 49.1946C46.6439 49.1639 43.8189 48.7951 42.9591 49.4404C42.4678 49.8399 41.7001 51.2226 42.4064 51.7757C43.2662 52.4824 46.7975 53.4964 49.1312 55.7703C49.2233 55.8625 49.3462 55.9546 49.469 56.0161L50.6666 56.6614Z" fill="#282727"></path><path d="M61.6905 39.2389C61.6905 39.2389 58.6198 41.9736 59.4181 43.3871C60.2165 44.8006 64.0242 51.069 65.6517 53.3121C67.2792 55.5552 68.5382 56.4156 69.3058 56.139C70.0735 55.8625 68.6917 49.6555 66.1123 45.0157C63.5329 40.4065 62.3353 38.6243 61.6905 39.2389Z" fill="#282727"></path><path d="M14.1562 28.9145C14.2483 28.9453 19.9598 29.4369 22.2629 29.99C24.5659 30.5431 26.6233 31.3727 27.2374 29.3447C27.8516 27.3167 29.2948 25.9647 28.8342 25.5345C28.3736 25.1043 24.5659 25.1658 21.2495 25.8418C17.9332 26.5178 11.3925 27.9005 14.1562 28.9145Z" fill="#282727"></path><path d="M41.1782 33.2165C41.1782 33.2165 42.7749 34.6299 44.7402 34.4763C46.7054 34.3227 47.5652 33.0014 48.7628 31.3114C49.9604 29.6214 50.2982 27.9621 49.5919 26.3335C48.8856 24.7049 47.6574 23.568 44.3103 24.244C40.9632 24.92 39.7349 31.3114 41.1782 33.2165Z" fill="black"></path><path d="M57.4529 30.1128C57.4529 30.1128 56.4088 28.8222 55.4569 27.8697C54.505 26.9479 54.7199 25.1964 55.7333 24.3053C56.7466 23.4142 58.0977 23.2605 59.5409 26.1489C60.9842 29.0066 61.0456 32.1101 60.1244 34.261C60.1551 34.261 58.7118 31.3112 57.4529 30.1128Z" fill="black"></path><path d="M48.2101 36.1354C48.2101 36.1354 49.4077 37.7332 51.2194 38.2248C53.0005 38.7165 54.6586 38.0712 55.1192 37.5796C55.5491 37.1187 56.1326 36.1661 54.7508 35.4901C53.3689 34.8141 52.2021 33.9844 53.0926 33.1548C53.9831 32.3252 58.2207 32.3559 58.5891 33.0012C58.9576 33.6464 59.0497 34.1995 57.7908 35.2135C56.5318 36.2275 56.2247 36.8114 56.8388 37.5181C57.4837 38.2248 58.4356 37.7332 58.4356 37.7332C58.4356 37.7332 57.7908 38.8087 56.8081 38.6243C55.8562 38.4399 56.3782 37.979 55.8562 38.4399C55.3035 38.9008 54.4744 39.4539 53.3382 39.5154C52.2021 39.5768 50.3903 39.4539 48.9164 38.0712C47.4425 36.7192 47.7495 36.4426 47.8724 36.3197C47.9952 36.1968 48.0259 36.1661 48.2101 36.1354Z" fill="black"></path><path d="M0 64.7428C0 64.7428 15.8756 52.083 46.3063 67.9999C46.3063 67.9999 20.4816 43.848 0 64.7428Z" fill="#6CC7E2"></path><path d="M4.69824 59.2118C4.69824 59.2118 15.6607 48.9488 32.089 57.1223C48.5173 65.2958 60.8308 75.651 82.5715 59.2118C82.5715 59.2118 64.0551 66.74 47.5654 57.2145C31.0757 47.689 17.1346 44.3704 4.69824 59.2118Z" fill="#007EAA"></path><path d="M47.6576 32.5403C48.4378 32.5403 49.0702 31.9075 49.0702 31.1268C49.0702 30.3462 48.4378 29.7134 47.6576 29.7134C46.8775 29.7134 46.2451 30.3462 46.2451 31.1268C46.2451 31.9075 46.8775 32.5403 47.6576 32.5403Z" fill="white"></path><path d="M58.0113 30.8234C58.7908 30.7915 59.3945 30.0782 59.3598 29.2304C59.3251 28.3826 58.665 27.7212 57.8855 27.7531C57.106 27.7851 56.5023 28.4983 56.537 29.3462C56.5717 30.194 57.2318 30.8554 58.0113 30.8234Z" fill="white"></path><path d="M38.5068 19.0513C38.5068 19.0513 33.6858 27.0711 35.0062 32.9401C35.4361 34.8145 36.5108 43.7869 53.3076 44.1864C53.3076 44.1864 48.3945 46.8904 41.4547 44.8009C34.5149 42.7115 32.2733 38.9627 31.6591 34.4457C31.045 29.9288 31.9969 24.3057 34.0236 22.462C36.0502 20.6184 36.5109 20.0346 38.5068 19.0513Z" fill="#EDEDED"></path><path d="M103.979 42C103.483 42 103.099 41.864 102.827 41.592C102.555 41.304 102.419 40.912 102.419 40.416V26.568C102.419 26.056 102.547 25.672 102.803 25.416C103.075 25.144 103.459 25.008 103.955 25.008C104.451 25.008 104.827 25.144 105.083 25.416C105.355 25.672 105.491 26.056 105.491 26.568V39.384H112.451C112.883 39.384 113.211 39.496 113.435 39.72C113.675 39.944 113.795 40.264 113.795 40.68C113.795 41.096 113.675 41.424 113.435 41.664C113.211 41.888 112.883 42 112.451 42H103.979ZM117.096 42.168C116.616 42.168 116.248 42.024 115.992 41.736C115.736 41.448 115.608 41.048 115.608 40.536V31.728C115.608 31.2 115.736 30.8 115.992 30.528C116.248 30.24 116.616 30.096 117.096 30.096C117.576 30.096 117.944 30.24 118.2 30.528C118.472 30.8 118.608 31.2 118.608 31.728V40.536C118.608 41.048 118.48 41.448 118.224 41.736C117.968 42.024 117.592 42.168 117.096 42.168ZM117.096 27.864C116.536 27.864 116.096 27.728 115.776 27.456C115.472 27.168 115.32 26.776 115.32 26.28C115.32 25.768 115.472 25.376 115.776 25.104C116.096 24.832 116.536 24.696 117.096 24.696C117.672 24.696 118.112 24.832 118.416 25.104C118.72 25.376 118.872 25.768 118.872 26.28C118.872 26.776 118.72 27.168 118.416 27.456C118.112 27.728 117.672 27.864 117.096 27.864ZM127.197 46.56C126.333 46.56 125.493 46.48 124.677 46.32C123.877 46.16 123.149 45.912 122.493 45.576C122.189 45.416 121.981 45.224 121.869 45C121.773 44.776 121.741 44.544 121.773 44.304C121.821 44.08 121.917 43.88 122.061 43.704C122.221 43.528 122.413 43.408 122.637 43.344C122.861 43.28 123.093 43.312 123.333 43.44C124.037 43.792 124.701 44.016 125.325 44.112C125.965 44.224 126.509 44.28 126.957 44.28C128.029 44.28 128.829 44.016 129.357 43.488C129.901 42.976 130.173 42.208 130.173 41.184V39.024H130.389C130.149 39.84 129.645 40.496 128.877 40.992C128.125 41.472 127.269 41.712 126.309 41.712C125.253 41.712 124.333 41.472 123.549 40.992C122.765 40.496 122.157 39.808 121.725 38.928C121.293 38.048 121.077 37.024 121.077 35.856C121.077 34.976 121.197 34.184 121.437 33.48C121.693 32.76 122.045 32.144 122.493 31.632C122.957 31.12 123.509 30.728 124.149 30.456C124.805 30.168 125.525 30.024 126.309 30.024C127.301 30.024 128.165 30.272 128.901 30.768C129.653 31.248 130.141 31.888 130.365 32.688L130.125 33.288V31.584C130.125 31.088 130.253 30.712 130.509 30.456C130.781 30.2 131.149 30.072 131.613 30.072C132.093 30.072 132.461 30.2 132.717 30.456C132.973 30.712 133.101 31.088 133.101 31.584V40.824C133.101 42.728 132.597 44.16 131.589 45.12C130.581 46.08 129.117 46.56 127.197 46.56ZM127.125 39.432C127.749 39.432 128.285 39.288 128.733 39C129.181 38.712 129.525 38.304 129.765 37.776C130.021 37.232 130.149 36.592 130.149 35.856C130.149 34.752 129.877 33.888 129.333 33.264C128.789 32.624 128.053 32.304 127.125 32.304C126.501 32.304 125.965 32.448 125.517 32.736C125.069 33.024 124.717 33.432 124.461 33.96C124.221 34.488 124.101 35.12 124.101 35.856C124.101 36.96 124.373 37.832 124.917 38.472C125.461 39.112 126.197 39.432 127.125 39.432ZM137.697 42.192C137.217 42.192 136.849 42.064 136.593 41.808C136.337 41.536 136.209 41.152 136.209 40.656V26.4C136.209 25.904 136.337 25.528 136.593 25.272C136.849 25.016 137.217 24.888 137.697 24.888C138.177 24.888 138.545 25.016 138.801 25.272C139.073 25.528 139.209 25.904 139.209 26.4V32.616H138.873C139.225 31.768 139.769 31.128 140.505 30.696C141.257 30.248 142.105 30.024 143.049 30.024C143.993 30.024 144.769 30.2 145.377 30.552C145.985 30.904 146.441 31.44 146.745 32.16C147.049 32.864 147.201 33.76 147.201 34.848V40.656C147.201 41.152 147.073 41.536 146.817 41.808C146.561 42.064 146.193 42.192 145.713 42.192C145.233 42.192 144.857 42.064 144.585 41.808C144.329 41.536 144.201 41.152 144.201 40.656V34.992C144.201 34.08 144.025 33.416 143.673 33C143.337 32.584 142.809 32.376 142.089 32.376C141.209 32.376 140.505 32.656 139.977 33.216C139.465 33.76 139.209 34.488 139.209 35.4V40.656C139.209 41.68 138.705 42.192 137.697 42.192ZM155.624 42.24C154.584 42.24 153.712 42.064 153.008 41.712C152.32 41.36 151.808 40.848 151.472 40.176C151.136 39.488 150.968 38.64 150.968 37.632V32.52H149.72C149.336 32.52 149.04 32.424 148.832 32.232C148.624 32.024 148.52 31.744 148.52 31.392C148.52 31.024 148.624 30.744 148.832 30.552C149.04 30.36 149.336 30.264 149.72 30.264H150.968V28.08C150.968 27.584 151.096 27.208 151.352 26.952C151.624 26.696 152 26.568 152.48 26.568C152.96 26.568 153.328 26.696 153.584 26.952C153.84 27.208 153.968 27.584 153.968 28.08V30.264H156.512C156.896 30.264 157.192 30.36 157.4 30.552C157.608 30.744 157.712 31.024 157.712 31.392C157.712 31.744 157.608 32.024 157.4 32.232C157.192 32.424 156.896 32.52 156.512 32.52H153.968V37.464C153.968 38.232 154.136 38.808 154.472 39.192C154.808 39.576 155.352 39.768 156.104 39.768C156.376 39.768 156.616 39.744 156.824 39.696C157.032 39.648 157.216 39.616 157.376 39.6C157.568 39.584 157.728 39.648 157.856 39.792C157.984 39.92 158.048 40.192 158.048 40.608C158.048 40.928 157.992 41.216 157.88 41.472C157.784 41.712 157.6 41.88 157.328 41.976C157.12 42.04 156.848 42.096 156.512 42.144C156.176 42.208 155.88 42.24 155.624 42.24Z" fill="#6CC7E2"></path><path d="M160.947 46.512C160.467 46.512 160.099 46.384 159.843 46.128C159.587 45.872 159.459 45.496 159.459 45V31.584C159.459 31.088 159.587 30.712 159.843 30.456C160.099 30.2 160.459 30.072 160.923 30.072C161.403 30.072 161.771 30.2 162.027 30.456C162.283 30.712 162.411 31.088 162.411 31.584V33.456L162.147 32.736C162.387 31.92 162.875 31.264 163.611 30.768C164.363 30.272 165.235 30.024 166.227 30.024C167.251 30.024 168.147 30.272 168.915 30.768C169.699 31.264 170.307 31.968 170.739 32.88C171.171 33.776 171.387 34.856 171.387 36.12C171.387 37.368 171.171 38.456 170.739 39.384C170.307 40.296 169.707 41 168.939 41.496C168.171 41.992 167.267 42.24 166.227 42.24C165.251 42.24 164.395 42 163.659 41.52C162.923 41.024 162.427 40.384 162.171 39.6H162.459V45C162.459 45.496 162.323 45.872 162.051 46.128C161.795 46.384 161.427 46.512 160.947 46.512ZM165.387 39.96C165.979 39.96 166.499 39.816 166.947 39.528C167.395 39.24 167.739 38.816 167.979 38.256C168.235 37.68 168.363 36.968 168.363 36.12C168.363 34.84 168.091 33.888 167.547 33.264C167.003 32.624 166.283 32.304 165.387 32.304C164.795 32.304 164.275 32.448 163.827 32.736C163.379 33.008 163.027 33.432 162.771 34.008C162.531 34.568 162.411 35.272 162.411 36.12C162.411 37.384 162.683 38.344 163.227 39C163.771 39.64 164.491 39.96 165.387 39.96ZM177.714 42.24C176.866 42.24 176.106 42.08 175.434 41.76C174.778 41.424 174.258 40.976 173.874 40.416C173.506 39.856 173.322 39.224 173.322 38.52C173.322 37.656 173.546 36.976 173.994 36.48C174.442 35.968 175.17 35.6 176.178 35.376C177.186 35.152 178.538 35.04 180.234 35.04H181.434V36.768H180.258C179.266 36.768 178.474 36.816 177.882 36.912C177.29 37.008 176.866 37.176 176.61 37.416C176.37 37.64 176.25 37.96 176.25 38.376C176.25 38.904 176.434 39.336 176.802 39.672C177.17 40.008 177.682 40.176 178.338 40.176C178.866 40.176 179.33 40.056 179.73 39.816C180.146 39.56 180.474 39.216 180.714 38.784C180.954 38.352 181.074 37.856 181.074 37.296V34.536C181.074 33.736 180.898 33.16 180.546 32.808C180.194 32.456 179.602 32.28 178.77 32.28C178.306 32.28 177.802 32.336 177.258 32.448C176.73 32.56 176.17 32.752 175.578 33.024C175.274 33.168 175.002 33.208 174.762 33.144C174.538 33.08 174.362 32.952 174.234 32.76C174.106 32.552 174.042 32.328 174.042 32.088C174.042 31.848 174.106 31.616 174.234 31.392C174.362 31.152 174.578 30.976 174.882 30.864C175.618 30.56 176.322 30.344 176.994 30.216C177.682 30.088 178.306 30.024 178.866 30.024C180.018 30.024 180.962 30.2 181.698 30.552C182.45 30.904 183.01 31.44 183.378 32.16C183.746 32.864 183.93 33.776 183.93 34.896V40.656C183.93 41.152 183.81 41.536 183.57 41.808C183.33 42.064 182.986 42.192 182.538 42.192C182.09 42.192 181.738 42.064 181.482 41.808C181.242 41.536 181.122 41.152 181.122 40.656V39.504H181.314C181.202 40.064 180.978 40.552 180.642 40.968C180.322 41.368 179.914 41.68 179.418 41.904C178.922 42.128 178.354 42.24 177.714 42.24ZM188.463 42.192C187.983 42.192 187.615 42.064 187.359 41.808C187.103 41.536 186.975 41.152 186.975 40.656V31.584C186.975 31.088 187.103 30.712 187.359 30.456C187.615 30.2 187.975 30.072 188.439 30.072C188.903 30.072 189.263 30.2 189.519 30.456C189.775 30.712 189.903 31.088 189.903 31.584V33.216L189.639 32.616C189.991 31.768 190.535 31.128 191.271 30.696C192.023 30.248 192.871 30.024 193.815 30.024C194.759 30.024 195.535 30.2 196.143 30.552C196.751 30.904 197.207 31.44 197.511 32.16C197.815 32.864 197.967 33.76 197.967 34.848V40.656C197.967 41.152 197.839 41.536 197.583 41.808C197.327 42.064 196.959 42.192 196.479 42.192C195.999 42.192 195.623 42.064 195.351 41.808C195.095 41.536 194.967 41.152 194.967 40.656V34.992C194.967 34.08 194.791 33.416 194.439 33C194.103 32.584 193.575 32.376 192.855 32.376C191.975 32.376 191.271 32.656 190.743 33.216C190.231 33.76 189.975 34.488 189.975 35.4V40.656C189.975 41.68 189.471 42.192 188.463 42.192ZM205.526 42.24C204.502 42.24 203.598 41.992 202.814 41.496C202.046 41 201.446 40.296 201.014 39.384C200.582 38.456 200.366 37.368 200.366 36.12C200.366 34.856 200.582 33.776 201.014 32.88C201.446 31.968 202.046 31.264 202.814 30.768C203.598 30.272 204.502 30.024 205.526 30.024C206.502 30.024 207.35 30.264 208.07 30.744C208.806 31.224 209.302 31.856 209.558 32.64H209.294V26.4C209.294 25.904 209.422 25.528 209.678 25.272C209.934 25.016 210.302 24.888 210.782 24.888C211.262 24.888 211.63 25.016 211.886 25.272C212.158 25.528 212.294 25.904 212.294 26.4V40.656C212.294 41.152 212.166 41.536 211.91 41.808C211.654 42.064 211.286 42.192 210.806 42.192C210.326 42.192 209.958 42.064 209.702 41.808C209.446 41.536 209.318 41.152 209.318 40.656V38.784L209.582 39.504C209.342 40.336 208.854 41 208.118 41.496C207.382 41.992 206.518 42.24 205.526 42.24ZM206.366 39.96C206.958 39.96 207.478 39.816 207.926 39.528C208.374 39.24 208.718 38.816 208.958 38.256C209.214 37.68 209.342 36.968 209.342 36.12C209.342 34.84 209.07 33.888 208.526 33.264C207.982 32.624 207.262 32.304 206.366 32.304C205.774 32.304 205.254 32.448 204.806 32.736C204.358 33.008 204.006 33.432 203.75 34.008C203.51 34.568 203.39 35.272 203.39 36.12C203.39 37.384 203.662 38.344 204.206 39C204.75 39.64 205.47 39.96 206.366 39.96ZM219.269 42.24C218.421 42.24 217.661 42.08 216.989 41.76C216.333 41.424 215.813 40.976 215.429 40.416C215.061 39.856 214.877 39.224 214.877 38.52C214.877 37.656 215.101 36.976 215.549 36.48C215.997 35.968 216.725 35.6 217.733 35.376C218.741 35.152 220.093 35.04 221.789 35.04H222.989V36.768H221.813C220.821 36.768 220.029 36.816 219.437 36.912C218.845 37.008 218.421 37.176 218.165 37.416C217.925 37.64 217.805 37.96 217.805 38.376C217.805 38.904 217.989 39.336 218.357 39.672C218.725 40.008 219.237 40.176 219.893 40.176C220.421 40.176 220.885 40.056 221.285 39.816C221.701 39.56 222.029 39.216 222.269 38.784C222.509 38.352 222.629 37.856 222.629 37.296V34.536C222.629 33.736 222.453 33.16 222.101 32.808C221.749 32.456 221.157 32.28 220.325 32.28C219.861 32.28 219.357 32.336 218.813 32.448C218.285 32.56 217.725 32.752 217.133 33.024C216.829 33.168 216.557 33.208 216.317 33.144C216.093 33.08 215.917 32.952 215.789 32.76C215.661 32.552 215.597 32.328 215.597 32.088C215.597 31.848 215.661 31.616 215.789 31.392C215.917 31.152 216.133 30.976 216.437 30.864C217.173 30.56 217.877 30.344 218.549 30.216C219.237 30.088 219.861 30.024 220.421 30.024C221.573 30.024 222.517 30.2 223.253 30.552C224.005 30.904 224.565 31.44 224.933 32.16C225.301 32.864 225.485 33.776 225.485 34.896V40.656C225.485 41.152 225.365 41.536 225.125 41.808C224.885 42.064 224.541 42.192 224.093 42.192C223.645 42.192 223.293 42.064 223.037 41.808C222.797 41.536 222.677 41.152 222.677 40.656V39.504H222.869C222.757 40.064 222.533 40.552 222.197 40.968C221.877 41.368 221.469 41.68 220.973 41.904C220.477 42.128 219.909 42.24 219.269 42.24Z" fill="white"></path></svg>
